<svg width="26" height="33" viewBox="0 0 26 33" fill="none" xmlns="http://www.w3.org/2000/svg">
<path d="M10.2647 30.0236C11.1389 30.7449 12.0507 31.4042 12.9841 32.0477C13.9195 31.4128 14.8269 30.7374 15.7036 30.0236C17.165 28.8236 18.5404 27.5225 19.8195 26.1298C22.7684 22.9054 25.9682 18.2311 25.9682 12.9841C25.9682 11.279 25.6324 9.59061 24.9799 8.01531C24.3273 6.44 23.3709 5.00864 22.1653 3.80296C20.9596 2.59727 19.5282 1.64087 17.9529 0.988356C16.3776 0.335844 14.6892 0 12.9841 0C11.279 0 9.59061 0.335844 8.01531 0.988356C6.44 1.64087 5.00864 2.59727 3.80296 3.80296C2.59727 5.00864 1.64087 6.44 0.988356 8.01531C0.335844 9.59061 -2.54079e-08 11.279 0 12.9841C0 18.2311 3.19986 22.904 6.1487 26.1298C7.4278 27.523 8.80317 28.8231 10.2647 30.0236ZM12.9841 17.6728C11.7406 17.6728 10.548 17.1788 9.66869 16.2995C8.78939 15.4202 8.2954 14.2276 8.2954 12.9841C8.2954 11.7406 8.78939 10.548 9.66869 9.66869C10.548 8.78939 11.7406 8.2954 12.9841 8.2954C14.2276 8.2954 15.4202 8.78939 16.2995 9.66869C17.1788 10.548 17.6728 11.7406 17.6728 12.9841C17.6728 14.2276 17.1788 15.4202 16.2995 16.2995C15.4202 17.1788 14.2276 17.6728 12.9841 17.6728Z" fill="#913832"/>
</svg>
