<svg width="97" height="468" viewBox="0 0 97 468" fill="none" xmlns="http://www.w3.org/2000/svg">
<path d="M7.72086 19L12.7209 0H36.2209C32.6209 4 26.3876 33 23.7209 47C10.1209 103.8 35.3876 187 49.7209 221.5L51.7209 227L54.7209 235.5L56.7209 241L59.2209 248L61.2209 253L63.7209 260L66.2209 267L67.2209 270L68.7209 274L70.7209 279.5L73.2209 287L74.7209 291L76.7209 297L79.7209 306.5L80.7209 310L81.7209 313L83.7209 320L85.7209 327L87.2209 333L88.7209 339L90.2209 346L90.7209 348L91.7209 353L92.7209 359L93.2209 362L93.7209 365L94.7209 373L95.2209 378L95.7209 384C96.1209 387.6 96.2209 392.167 96.2209 394V398V406L95.7209 414L95.2209 420L94.2209 428L93.2209 434.5L91.7209 442L90.2209 448.5L88.7209 454L87.2209 459L85.2209 465L84.1266 468H61.7209L62.7209 465L64.2209 461L65.2209 458L67.2209 452L68.7209 446L70.2209 440L71.7209 433L72.7209 427L73.7209 419L74.2209 413L74.7209 404V400V394L74.2209 384.5L73.7209 379L73.2209 374.5L72.7209 370L71.7209 363.5L70.7209 357.5L67.7209 343L64.2209 329.5L58.2209 309.5L52.7209 292.5L46.2209 274L40.7209 259L36.2209 246.5L31.7209 234L26.7209 219.5L22.2209 206L17.7209 191.5L11.7209 170.5L7.72089 153C4.92089 141.8 3.55422 131.333 3.22089 127.5C2.42089 125.9 0.887536 106.5 0.220861 97C-0.179139 96.6 0.054194 80.5 0.220861 72.5C0.220861 65.7 1.55419 54.3333 2.22086 49.5C2.62086 45.1 4.05419 36.6667 4.72086 33L7.72086 19Z" fill="#F5EEE5"/>
</svg>
