<svg width="71" height="468" viewBox="0 0 71 468" fill="none" xmlns="http://www.w3.org/2000/svg">
<path d="M5.69711 19L9.38654 0H26.7269C24.0705 4 19.471 33 17.5033 47C7.46806 103.8 26.112 187 36.6883 221.5L38.1641 227L40.3778 235.5L41.8535 241L43.6982 248L45.174 253L47.0187 260L48.8634 267L49.6013 270L50.7081 274L52.1839 279.5L54.0286 287L55.1355 291L56.6112 297L58.8249 306.5L59.5628 310L60.3007 313L61.7764 320L63.2522 327L64.359 333L65.4659 339L66.5727 346L66.9416 348L67.6795 353L68.4174 359L68.7863 362L69.1553 365L69.8932 373L70.2621 378L70.6311 384C70.9262 387.6 71 392.167 71 394V398V406L70.6311 414L70.2621 420L69.5242 428L68.7863 434.5L67.6795 442L66.5727 448.5L65.4659 454L64.359 459L62.8833 465L62.0758 468H45.5429L46.2808 465L47.3877 461L48.1255 458L49.6013 452L50.7081 446L51.815 440L52.9218 433L53.6597 427L54.3976 419L54.7665 413L55.1355 404V400V394L54.7665 384.5L54.3976 379L54.0286 374.5L53.6597 370L52.9218 363.5L52.1839 357.5L49.9703 343L47.3877 329.5L42.9604 309.5L38.902 292.5L34.1057 274L30.0474 259L26.7269 246.5L23.4064 234L19.717 219.5L16.3965 206L13.076 191.5L8.64867 170.5L5.69713 153C3.63105 141.8 2.62261 131.333 2.37665 127.5C1.78634 125.9 0.6549 106.5 0.16297 97C-0.132184 96.6 0.039989 80.5 0.16297 72.5C0.16297 65.7 1.14682 54.3333 1.63874 49.5C1.9339 45.1 2.99153 36.6667 3.48345 33L5.69711 19Z" fill="white"/>
</svg>
